<?xml version="1.0" ?><svg viewBox="0 0 64 64" xmlns="http://www.w3.org/2000/svg"><defs><style>.cls-1{fill:#0072ff;}</style></defs><title/><g data-name="Layer 2" id="Layer_2"><path class="cls-1" d="M17.07,20a1,1,0,0,0,.39-.08l.9-.37a1,1,0,0,0-.73-1.86l-1,.39A1,1,0,0,0,17.07,20Z"/><path class="cls-1" d="M8.33,25.19A1,1,0,0,0,8.94,25q.65-.51,1.32-1A1,1,0,1,0,9.1,22.36q-.71.51-1.39,1a1,1,0,0,0,.62,1.79Z"/><path class="cls-1" d="M12.53,22.31a1,1,0,0,0,.51-.14q.71-.42,1.44-.81a1,1,0,1,0-.94-1.76q-.77.41-1.52.85a1,1,0,0,0,.51,1.86Z"/><path class="cls-1" d="M5,28.11a1,1,0,0,0,.7-.29l.7-.67a1,1,0,1,0-1.37-1.46l-.74.71A1,1,0,0,0,5,28.11Z"/><path class="cls-1" d="M58.27,27.82a1,1,0,1,0,1.41-1.42l-.74-.71a1,1,0,1,0-1.37,1.46Z"/><path class="cls-1" d="M55.06,25a1,1,0,0,0,1.24-1.57q-.68-.54-1.39-1A1,1,0,1,0,53.74,24Q54.41,24.47,55.06,25Z"/><path class="cls-1" d="M49.53,21.37q.73.39,1.44.81a1,1,0,0,0,1-1.72q-.75-.44-1.52-.85a1,1,0,1,0-.94,1.76Z"/><path class="cls-1" d="M45.63,19.57l.9.37a1,1,0,1,0,.78-1.84l-.95-.39a1,1,0,0,0-.73,1.86Z"/><path class="cls-1" d="M32,32a38.07,38.07,0,0,0-16.33,3.67l0,0c-.6.28-1.19.59-1.77.9l-.06,0-.26.15q-.81.45-1.6.93l-.11.07.09-.05c-1.07.66-2.09,1.37-3.08,2.12l-.73.56c-.31.25-.61.51-.92.76s-.59.5-.88.76l-.51.47.06-.06c-.28.27-.57.53-.85.8H5a3.54,3.54,0,0,0-1,2.52H4v4.12a3.34,3.34,0,0,1,.33-.49,38.38,38.38,0,0,1,10.55-8.71,5.56,5.56,0,0,1,6.63,1,15.76,15.76,0,0,1,4.62,11.15v.61a2.64,2.64,0,0,0,.76,1.92,2.74,2.74,0,0,1,.79,2.7A1.77,1.77,0,0,0,29.44,60H44.65a1.7,1.7,0,0,0,1.7-2,4.39,4.39,0,0,1-.1-.94v-.68a4.53,4.53,0,0,0-1.33-3.2l-1.45-1.45a4.75,4.75,0,0,0-3.33-1.48,4.53,4.53,0,0,1-3.23-1.33l-3.6-3.6A4.53,4.53,0,0,1,32,42.13a5.57,5.57,0,0,1,6.77-5.46l.16,0a34,34,0,0,1,15.41,7.58A38.31,38.31,0,0,1,60,50V45.64a3.56,3.56,0,0,0-1-2.53A38.2,38.2,0,0,0,32,32Z"/><path class="cls-1" d="M21.89,21.94a.58.58,0,0,0,.47-.24l1.8-2.51a.62.62,0,0,1,.72-.22l.39.14A14.67,14.67,0,0,0,30,20a.08.08,0,0,1,.08.09l-.91,9.12a.57.57,0,0,0,1.08.31L35,20h4.2a5.76,5.76,0,0,0,3-.84,1.31,1.31,0,0,0,0-2.25,5.76,5.76,0,0,0-3-.84H35L30.22,6.51a.57.57,0,0,0-1.08.31l.91,9.12A.08.08,0,0,1,30,16a14.67,14.67,0,0,0-4.7.86l-.39.14a.62.62,0,0,1-.72-.22l-1.8-2.51a.58.58,0,0,0-1,.46l.6,3.24-.6,3.24A.58.58,0,0,0,21.89,21.94Z"/></g></svg>